<?xml version="1.0" standalone="no"?>
<!DOCTYPE svg PUBLIC "-//W3C//DTD SVG 20010904//EN"
 "http://www.w3.org/TR/2001/REC-SVG-20010904/DTD/svg10.dtd">
<svg version="1.0" xmlns="http://www.w3.org/2000/svg"
 width="189.000000pt" height="189.000000pt" viewBox="0 0 189.000000 189.000000"
 preserveAspectRatio="xMidYMid meet">
<metadata>
Created by potrace 1.11, written by Peter Selinger 2001-2013
</metadata>
<g transform="translate(0.000000,189.000000) scale(0.100000,-0.100000)"
fill="#000000" stroke="none">
<path d="M552 1843 c-35 -7 -117 -94 -145 -154 -62 -137 -65 -325 -5 -448 23
-48 102 -131 125 -131 7 0 25 -7 39 -17 61 -40 221 -8 295 59 50 45 69 85 79
163 0 6 9 -11 18 -37 24 -68 74 -115 170 -161 69 -33 94 -40 145 -40 39 0 74
6 95 17 l33 17 -28 -53 c-39 -75 -39 -175 -1 -234 15 -23 39 -51 55 -63 15
-11 33 -25 39 -30 19 -16 100 -50 131 -56 72 -12 159 45 213 140 43 77 58 139
55 235 -4 100 -36 186 -88 232 -65 57 -173 26 -286 -83 -22 -20 -24 -21 -17
-4 69 163 66 312 -9 468 -40 86 -64 118 -118 164 -23 18 -102 26 -139 14 -91
-31 -221 -223 -252 -375 -14 -66 -25 -94 -27 -65 -2 43 -9 74 -19 77 -5 2 -10
10 -10 18 0 41 -93 213 -150 278 -54 61 -119 84 -198 69z"/>
<path d="M155 1310 c-49 -11 -73 -28 -99 -73 -68 -118 -51 -288 42 -427 43
-65 128 -122 199 -134 71 -13 188 57 230 137 20 38 22 124 4 164 -63 137 -129
218 -233 284 -68 44 -105 57 -143 49z"/>
<path d="M870 1101 c-119 -39 -298 -220 -451 -456 -42 -64 -96 -186 -105 -235
-30 -174 61 -290 271 -346 69 -19 99 -20 395 -13 30 1 89 -2 130 -7 199 -24
346 33 412 159 32 61 30 178 -4 267 -101 257 -311 526 -477 610 -47 24 -131
34 -171 21z"/>
</g>
</svg>
